<svg width="35" height="35" viewBox="0 0 35 35" fill="none" xmlns="http://www.w3.org/2000/svg">
<path d="M23.6104 2.91666H11.3896C6.08125 2.91666 2.91667 6.08125 2.91667 11.3896V23.5958C2.91667 28.9187 6.08125 32.0833 11.3896 32.0833H23.5958C28.9042 32.0833 32.0688 28.9187 32.0688 23.6104V11.3896C32.0833 6.08125 28.9188 2.91666 23.6104 2.91666ZM16.7708 25.1562C16.7708 25.6812 16.2458 26.0312 15.7646 25.8271C14 25.0687 11.6958 24.3687 10.0917 24.1646L9.81459 24.1354C8.925 24.0187 8.19584 23.1875 8.19584 22.2833V11.0542C8.19584 9.93125 9.1 9.1 10.2083 9.1875C12.0313 9.33333 14.7292 10.2083 16.4208 11.1708C16.6542 11.3021 16.7708 11.55 16.7708 11.7979V25.1562ZM26.8042 22.2687C26.8042 23.1729 26.075 24.0042 25.1854 24.1208L24.8792 24.15C23.2896 24.3687 21 25.0542 19.2354 25.7979C18.7542 26.0021 18.2292 25.6521 18.2292 25.1271V11.7833C18.2292 11.5208 18.3604 11.2729 18.5938 11.1417C20.2854 10.1937 22.925 9.34791 24.7188 9.1875H24.7771C25.9 9.1875 26.8042 10.0917 26.8042 11.2146V22.2687Z" fill="white"/>
</svg>
