<svg width="35" height="35" viewBox="0 0 35 35" fill="none" xmlns="http://www.w3.org/2000/svg">
<path d="M23.6104 2.91667H11.3896C6.08125 2.91667 2.91667 6.08125 2.91667 11.3896V23.5958C2.91667 28.9187 6.08125 32.0833 11.3896 32.0833H23.5958C28.9042 32.0833 32.0688 28.9187 32.0688 23.6104V11.3896C32.0833 6.08125 28.9188 2.91667 23.6104 2.91667ZM13.2854 24.6458C13.2854 25.0542 12.9646 25.375 12.5563 25.375H8.48751C8.07917 25.375 7.75834 25.0542 7.75834 24.6458V17.9083C7.75834 16.9896 8.50209 16.2458 9.42084 16.2458H12.5563C12.9646 16.2458 13.2854 16.5667 13.2854 16.975V24.6458ZM20.2563 24.6458C20.2563 25.0542 19.9354 25.375 19.5271 25.375H15.4583C15.05 25.375 14.7292 25.0542 14.7292 24.6458V11.2875C14.7292 10.3687 15.4729 9.625 16.3917 9.625H18.6083C19.5271 9.625 20.2708 10.3687 20.2708 11.2875V24.6458H20.2563ZM27.2417 24.6458C27.2417 25.0542 26.9208 25.375 26.5125 25.375H22.4438C22.0354 25.375 21.7146 25.0542 21.7146 24.6458V19.4687C21.7146 19.0604 22.0354 18.7396 22.4438 18.7396H25.5792C26.4979 18.7396 27.2417 19.4833 27.2417 20.4021V24.6458Z" fill="white"/>
</svg>
