<svg width="35" height="35" viewBox="0 0 35 35" fill="none" xmlns="http://www.w3.org/2000/svg">
<path d="M30.4209 12.2062L20.3146 4.12708C18.7542 2.87292 16.2313 2.87292 14.6855 4.1125L4.57921 12.2062C3.44171 13.1104 2.71254 15.0208 2.96046 16.45L4.90004 28.0583C5.25004 30.1292 7.23337 31.8062 9.33337 31.8062H25.6667C27.7521 31.8062 29.75 30.1146 30.1 28.0583L32.0396 16.45C32.273 15.0208 31.5438 13.1104 30.4209 12.2062ZM17.5 22.6042C15.4875 22.6042 13.8542 20.9708 13.8542 18.9583C13.8542 16.9458 15.4875 15.3125 17.5 15.3125C19.5125 15.3125 21.1459 16.9458 21.1459 18.9583C21.1459 20.9708 19.5125 22.6042 17.5 22.6042Z" fill="white"/>
</svg>
